<?xml version="1.0" encoding="utf-8"?>
<!-- Generator: Adobe Illustrator 19.0.0, SVG Export Plug-In . SVG Version: 6.00 Build 0)  -->
<svg version="1.1" id="Layer_1" xmlns="http://www.w3.org/2000/svg" xmlns:xlink="http://www.w3.org/1999/xlink" x="0px" y="0px"
	 viewBox="0 0 1400 980" style="enable-background:new 0 0 1400 980;" xml:space="preserve">
<style type="text/css">
	.st0{fill:#071B2D;}
	.st1{opacity:0.3;fill:#020303;}
	.st2{fill:url(#XMLID_6_);}
	.st3{opacity:0.3;fill:url(#XMLID_23_);}
	.st4{fill:url(#XMLID_24_);}
	.st5{opacity:0.3;fill:url(#XMLID_25_);}
	.st6{fill:url(#XMLID_26_);}
	.st7{opacity:0.3;fill:url(#XMLID_27_);}
	.st8{fill:url(#XMLID_28_);}
	.st9{opacity:0.3;fill:url(#XMLID_29_);}
	.st10{fill:url(#XMLID_30_);}
	.st11{opacity:0.3;fill:url(#XMLID_31_);}
	.st12{fill:url(#XMLID_32_);}
	.st13{opacity:0.3;fill:url(#XMLID_33_);}
</style>
<rect id="XMLID_21_" class="st0" width="1400" height="980"/>
<g id="XMLID_22_">
	<path id="XMLID_41_" class="st1" d="M906.2,241.9c0,0-67.9,4.8-39.2-57.7c0,0-60.7,32.9-59.9-40.5c0,0-47,50.3-71.3-15.3
		c-24.3,65.6-71.3,15.3-71.3,15.3c0.8,73.3-59.9,40.5-59.9,40.5c28.7,62.5-39.2,57.7-39.2,57.7c50.2,50.6-14.8,72.9-14.8,72.9
		c64.9,29.1,15.2,70.8,15.2,70.8c70.8,5.1,39.2,59,39.2,59c65.8-24,59,40.5,59,40.5c52.3-47.2,71.8,14.1,71.8,14.1
		s19.5-61.3,71.8-14.1c0,0-6.7-64.5,59-40.5c0,0-31.6-54,39.2-59c0,0-49.7-41.7,15.2-70.8C921,314.8,856.1,292.5,906.2,241.9z"/>
	<polygon id="XMLID_42_" class="st1" points="109.8,329.8 96.1,352.4 117.4,361.6 106.1,385.8 127.4,396.7 124.3,419.8 147.1,421 
		145.2,447.8 172.2,447.3 174.1,471.6 199.8,465.3 206.5,487.9 230.3,477.9 240.2,496.3 261.9,484.5 275.1,499.2 288.3,484.5 
		310,496.3 319.8,477.9 343.7,487.9 350.4,465.3 376.1,471.6 378,447.3 405,447.8 403.1,421 425.8,419.8 422.7,396.7 444.1,385.8 
		432.8,361.6 454.1,352.4 440.4,329.8 458.5,313.8 442,297.5 455.2,279 436,268.3 445.7,243.6 421,235 427.8,212.3 401.5,207.1 
		404.8,183.4 378.8,183.4 375.9,159.3 352.5,164.6 344.5,144.1 322.8,152.9 309.8,132.4 291.4,145.3 275.1,128.4 258.8,145.3 
		240.4,132.4 227.4,152.9 205.6,144.1 197.7,164.6 174.3,159.3 171.4,183.4 145.4,183.4 148.7,207.1 122.4,212.3 129.2,235 
		104.4,243.6 114.1,268.3 95,279 108.2,297.5 91.7,313.8 	"/>
	<polygon id="XMLID_43_" class="st1" points="414.6,722 451,699.1 408.3,700.9 441.5,673.2 400,681.5 428.7,649.4 387.6,663.7 
		410.8,627.8 372.5,648 390.6,608.2 356.6,634.3 367,593.2 336.6,623.5 342.8,579.7 317.5,614.9 316.1,571.5 295.7,610.8 
		289.4,567.8 275.1,608.2 260.8,567.8 254.4,610.8 234,571.5 232.6,614.9 207.4,579.7 213.6,623.5 183.1,593.2 193.6,634.3 
		159.5,608.2 177.6,648 139.4,627.8 162.6,663.7 121.4,649.4 150.2,681.5 108.7,673.2 141.8,700.9 99.2,699.1 135.6,722 91.2,725.8 
		131.7,742.9 91.2,753.3 134,763.8 92.7,781.7 135,785.8 98.1,808 141.9,805.4 108.3,834.5 150.4,825.1 120.2,859.8 162.9,842.4 
		139.1,880.7 177.9,858.5 160.3,897.5 194,872.5 183,913.3 212.6,882.5 208.3,924.6 234,890.9 234,933.8 254.7,895 261.6,938.6 
		275.1,898.1 288.6,938.6 295.5,895 316.1,933.8 316.1,890.9 341.9,924.6 337.6,882.5 367.2,913.4 356.2,872.5 389.9,897.5 
		372.3,858.5 411,880.7 387.3,842.4 429.9,859.8 399.8,825.1 441.9,834.5 408.2,805.4 452.1,808 415.1,785.8 457.5,781.7 
		416.1,763.9 459,753.3 418.4,742.9 459,725.8 	"/>
	<path id="XMLID_44_" class="st1" d="M907.9,730.3c-3.7-4-9.6-11.3-11.3-19.9c-2.6-12.8,1.1-21.8,1.1-21.8s6.3-15.9-3.4-30.5
		s-24.7-17.1-24.7-17.1s-15.3-3-24.3-13.6c-9-10.6-9.7-19.9-9.7-19.9s-2.8-16.8-22.4-23.5c-13.7-4.7-23.8-1.4-28.6,1
		c-4.3,2.2-9.1,3.5-13.9,3.5c-3.1,0-6.6-0.3-10.4-1.2c-10.3-2.6-15.1-8.5-15.1-8.5s-14-14-33.7-10.5c-19.8,3.5-25.9,19-25.9,19
		s-3.4,9.4-16.1,12.9c-12.7,3.5-17.3,1-17.3,1s-20.4-4.7-33.9,7.4c-13.5,12.1-12.5,29.4-12.5,29.4s-0.2,12.2-8.4,21.3
		c-5.7,10.8-16.9,15.2-16.9,15.2s-16.5,5.1-23.2,22c-6.6,16.9,4.9,34.4,4.9,34.4s4,3.4,5.1,16.5c1.1,13.1-6.5,19.6-6.5,19.6
		s-12.3,11.2-8.7,31c3.6,19.8,21.7,27.9,21.7,27.9s7.3,2.5,13.3,11.2c2.2,3.2,3.8,6.5,4.8,9.3c1.6,4.5,2.1,9.4,1.6,14.2
		c-0.6,5.4-0.1,16,9,27.1c13.1,16,29.8,12.7,29.8,12.7s8.9-2.7,22,2.1c13.1,4.7,21.3,18,21.3,18s7.6,13.1,24.7,17.1
		c17.1,4,29.8-7.5,29.8-7.5s7.1-6.6,20-8.6c8.6-1.4,17.6,1.6,22.6,3.7c6.5,2.7,13.5,4,20.5,3.5c4.2-0.3,8.8-1.2,13.4-3.1
		c15.2-6.3,18.2-21,18.2-21s2.3-9.6,9.4-16.5c7.1-6.8,9.9-7.1,26.8-11.1c17-4.1,23.5-18.7,23.5-18.7l0,0c1.4-1.5,11.1-12.4,9.1-28.4
		c-2.1-17.3-2.9-20,1-29s12.1-14.5,12.1-14.5s12.7-8,13.3-24.4c0.2-5-0.6-9.7-1.8-13.7C916.4,741.5,912.7,735.4,907.9,730.3z"/>
	<path id="XMLID_45_" class="st1" d="M999.6,325l9.3,6c2.7,1.7,3.4,5.3,1.6,7.9l-8.8,12.9c-1.7,2.5-1.1,5.9,1.3,7.7l11.8,8.7
		c1.9,1.4,2.8,3.9,2.1,6.2l-3.9,12.7c-1,3.2,1,6.5,4.2,7.2l10.8,2.4c3.1,0.7,5,3.8,4.3,6.8l-3.5,14.7c-0.8,3.2,1.4,6.4,4.7,6.9
		l15.5,2.3c3,0.4,5.1,3.1,4.8,6.1l-1.1,12.5c-0.3,3.5,2.6,6.4,6.1,6.1l14.6-1.1c3-0.2,5.7,1.9,6,4.9l1.5,11.9
		c0.4,3.3,3.6,5.6,6.9,4.8l14.2-3.4c2.8-0.7,5.7,0.9,6.7,3.7l3.3,9.6c1,3,4.2,4.6,7.2,3.5l13.9-4.8c2.5-0.9,5.2,0.1,6.6,2.3l4.9,7.7
		c1.8,2.8,5.7,3.5,8.3,1.4l7.1-5.7c2-1.6,4.9-1.7,7-0.1l11.6,9.1c2.5,1.9,6,1.5,8-1l6.2-8.1c1.8-2.3,5-2.9,7.5-1.3l12.3,7.8
		c2.8,1.8,6.6,0.7,8.1-2.3l5.2-10.8c1.3-2.7,4.5-3.9,7.3-2.7l13.4,5.7c3.2,1.4,6.9-0.5,7.7-3.8l3-12.2c0.7-2.9,3.6-4.7,6.5-4.2
		l15.4,2.8c3.3,0.6,6.3-1.7,6.6-5l1.4-15c0.3-3.1,3.1-5.4,6.2-5.1l11,1.2c3.3,0.4,6.2-2.1,6.3-5.4l0.4-13.3c0.1-2.4,1.7-4.5,3.9-5.2
		l14-4.4c2.9-0.9,4.6-4,3.7-6.9l-4.2-15.1c-0.9-3.1,1-6.2,4.1-7l10.8-2.7c3.3-0.8,5.2-4.4,3.9-7.6l-5.7-14.3c-1-2.5-0.1-5.4,2.2-6.9
		l11.4-7.2c2.8-1.7,3.5-5.5,1.6-8.1l-7.3-10.1c-1.6-2.2-1.4-5.3,0.6-7.3l8.3-8.3c2.4-2.4,2.1-6.3-0.5-8.4l-8.4-6.7
		c-2.2-1.8-2.8-4.9-1.3-7.3l8.1-13.6c1.7-2.8,0.7-6.3-2.2-7.9l-13.3-7.2c-2.7-1.4-3.7-4.7-2.4-7.4l5.4-11.1c1.5-3,0-6.6-3.1-7.8
		l-14.4-5.4c-2.8-1-4.3-4.1-3.4-7l3.6-11.8c1-3.3-1.1-6.7-4.5-7.2l-14.4-2.4c-2.8-0.5-4.8-3-4.7-5.8l0.6-13.1c0.1-3.3-2.6-6.1-6-5.9
		l-13,0.7c-2.8,0.2-5.3-1.8-5.8-4.5l-2.4-11.3c-0.6-3.1-3.7-5-6.8-4.4l-12.8,2.9c-2.7,0.6-5.4-0.8-6.4-3.3l-5.4-12.7
		c-1.3-3-4.8-4.3-7.7-2.9l-10.7,5.2c-2.5,1.2-5.5,0.4-7.1-1.9l-7.3-10.7c-1.8-2.6-5.5-3.2-8-1.3l-10.4,7.7c-2.2,1.7-5.4,1.5-7.3-0.5
		l-8.5-8.3c-2.3-2.3-6-2.1-8.2,0.3l-9.2,10.3c-1.8,2-4.8,2.5-7.2,1.1l-11.2-6.9c-2.7-1.6-6.2-0.8-7.8,1.9l-5.9,9.9
		c-1.4,2.4-4.4,3.4-7,2.4l-12.1-4.9c-3.1-1.3-6.6,0.4-7.5,3.7l-3.7,12.6c-0.8,2.7-3.5,4.5-6.3,4l-14.4-2.4c-3.4-0.6-6.5,2-6.6,5.4
		l-0.3,12.3c-0.1,3-2.5,5.4-5.5,5.5l-15.3,0.4c-3.3,0.1-5.9,3-5.4,6.4l1.5,12.2c0.4,3-1.7,5.8-4.7,6.3l-14.9,2.5
		c-3.2,0.5-5.2,3.6-4.6,6.8l3.3,15.5c0.6,2.8-1,5.5-3.6,6.5l-10.2,3.6c-3.2,1.1-4.6,4.8-3.2,7.8l5.2,10.6c1.2,2.5,0.5,5.5-1.8,7.1
		L1001,279c-2.7,1.9-3.2,5.6-1.1,8.2l8.5,10.5c1.7,2.1,1.7,5.2-0.1,7.2l-10,11.7C996.1,319.2,996.7,323.2,999.6,325z"/>
	<path id="XMLID_46_" class="st1" d="M1359.6,805.5c0,0-108.5-36.4-21.7-30c0,0-85.5-15.1,27.8-23.2c0,0-110.4-5.4-28.6-22
		c0,0-85.3,8.1,21.7-30.2c0,0-107.3,26.5-35.3-13.6c0,0-76.6,31.4,11.8-35.3c0,0-95.3,54.9-36.5-3.6c0,0-67.2,53.1,3.9-37.4
		c0,0-79.3,80.5-38,8.1c0,0-48.5,69.6-9.3-36.5c0,0-51.6,98-32,17.2c0,0-27.1,80.8-19-31.1c0,0-20.3,109.6-25.9,23.6
		c-5.6,86-25.9-23.6-25.9-23.6c8.1,111.9-19,31.1-19,31.1c19.6,80.8-32-17.2-32-17.2c39.2,106.1-9.3,36.5-9.3,36.5
		c41.3,72.4-38-8.1-38-8.1c71.2,90.5,3.9,37.4,3.9,37.4c58.8,58.5-36.5,3.6-36.5,3.6c88.3,66.6,11.8,35.3,11.8,35.3
		c72.1,40.1-35.3,13.6-35.3,13.6c107,38.3,21.7,30.2,21.7,30.2c81.7,16.6-28.6,22-28.6,22c113.4,8.1,27.8,23.2,27.8,23.2
		c86.8-6.4-21.7,30-21.7,30c113-24.1,34.6,13.7,34.6,13.7c80-29.7-11.7,35-11.7,35c99.7-55.5,37.4,3.6,37.4,3.6
		c66.3-49.4-2.8,36.6-2.8,36.6c82-81.2,36.6-6.4,36.6-6.4c50.3-65.5,8.4,35.4,8.4,35.4c54.3-100.1,33.8-16.9,33.8-16.9
		c27.7-78.8,18.1,32.2,18.1,32.2c22.9-111.8,26.7-24.5,26.7-24.5s3.8-87.2,26.7,24.5c0,0-9.6-111,18.1-32.2c0,0-20.5-83.2,33.8,16.9
		c0,0-41.8-100.9,8.4-35.4c0,0-45.4-74.8,36.6,6.4c0,0-69.1-86-2.8-36.6c0,0-62.3-59.1,37.4-3.6c0,0-91.7-64.7-11.7-35
		C1325,819.2,1246.6,781.4,1359.6,805.5z"/>
</g>
<g id="XMLID_17_">
	<linearGradient id="XMLID_6_" gradientUnits="userSpaceOnUse" x1="600.489" y1="114.2354" x2="778.7834" y2="375.0384">
		<stop  offset="0" style="stop-color:#8CC866"/>
		<stop  offset="1" style="stop-color:#007737"/>
	</linearGradient>
	<path id="XMLID_9_" class="st2" d="M892.5,271.3c0,0-64.9-22.3-14.8-72.9c0,0-67.9,4.8-39.2-57.7c0,0-60.7,32.9-59.9-40.5
		c0,0-47,50.3-71.3-15.3c-24.3,65.6-71.3,15.3-71.3,15.3c0.8,73.3-59.9,40.5-59.9,40.5c28.7,62.5-39.2,57.7-39.2,57.7
		c50.2,50.6-14.8,72.9-14.8,72.9c64.9,29.1,15.2,70.8,15.2,70.8c70.8,5.1,39.2,59,39.2,59c65.8-24,59,40.5,59,40.5
		c52.3-47.2,71.8,14.1,71.8,14.1s19.5-61.3,71.8-14.1c0,0-6.7-64.5,59-40.5c0,0-31.6-54,39.2-59
		C877.4,342.2,827.6,300.4,892.5,271.3z"/>
	<linearGradient id="XMLID_23_" gradientUnits="userSpaceOnUse" x1="755.7708" y1="323.8915" x2="600.2374" y2="136.1133">
		<stop  offset="0" style="stop-color:#7AD2F1;stop-opacity:0"/>
		<stop  offset="1" style="stop-color:#FFFFFF"/>
	</linearGradient>
	<path id="XMLID_8_" class="st3" d="M821.9,155.4c0,0-53,29.3-52.2-36c0,0-41,44.8-62.2-13.6c-21.2,58.4-62.2,13.6-62.2,13.6
		c0.7,65.3-52.2,36-52.2,36c25,55.7-34.2,51.4-34.2,51.4c43.8,45-12.9,64.9-12.9,64.9c56.6,25.9,13.2,63.1,13.2,63.1
		c37.4,2.7,42.1,21.4,39.9,35.8c86.9-83.5,176.2-134.7,242.2-164.8C825.6,202.8,805.3,192.1,821.9,155.4z"/>
</g>
<g id="XMLID_7_">
	<linearGradient id="XMLID_24_" gradientUnits="userSpaceOnUse" x1="104.1872" y1="75.0011" x2="341.3461" y2="401.5651">
		<stop  offset="0" style="stop-color:#7AD2F1"/>
		<stop  offset="1" style="stop-color:#017594"/>
	</linearGradient>
	<polygon id="XMLID_3_" class="st4" points="412,286.3 430,270.3 413.5,254 426.7,235.5 407.6,224.8 417.3,200.1 392.5,191.6 
		399.3,168.8 373.1,163.6 376.3,139.9 350.4,139.9 347.5,115.8 324,121.1 316.1,100.6 294.3,109.4 281.4,88.9 263,101.8 246.7,84.9 
		230.3,101.8 211.9,88.9 199,109.4 177.2,100.6 169.3,121.1 145.8,115.8 142.9,139.9 117,139.9 120.2,163.6 94,168.8 100.8,191.6 
		76,200.1 85.7,224.8 66.6,235.5 79.8,254 63.3,270.3 81.3,286.3 67.6,308.9 89,318.1 77.7,342.3 99,353.2 95.9,376.3 118.7,377.5 
		116.8,404.3 143.8,403.8 145.6,428.1 171.4,421.8 178.1,444.4 201.9,434.4 211.7,452.8 233.5,441 246.7,455.7 259.8,441 
		281.6,452.8 291.4,434.4 315.3,444.4 321.9,421.8 347.7,428.1 349.6,403.8 376.5,404.3 374.6,377.5 397.4,376.3 394.3,353.2 
		415.6,342.3 404.3,318.1 425.7,308.9 	"/>
	<linearGradient id="XMLID_25_" gradientUnits="userSpaceOnUse" x1="289.7459" y1="325.233" x2="111.8768" y2="105.0141">
		<stop  offset="0" style="stop-color:#7AD2F1;stop-opacity:0"/>
		<stop  offset="1" style="stop-color:#FFFFFF"/>
	</linearGradient>
	<path id="XMLID_13_" class="st5" d="M372.9,194.9l3.2-10.8l-22.3-4.3l2.7-20.1h-22l-2.5-20.4l-19.9,4.4l-6.7-17.4l-18.4,7.4
		l-11-17.4l-15.6,11L246.7,113l-13.8,14.4l-15.6-11l-11,17.4l-18.4-7.4l-6.7,17.4l-19.9-4.4l-2.5,20.4h-22l2.7,20.1l-22.3,4.3
		l5.8,19.3l-21,7.3l8.2,20.9l-16.2,9l11.2,15.7l-14,13.8l15.3,13.6L94.8,303l18.1,7.8l-9.6,20.6l18.1,9.2l-2.6,19.5l19.3,1
		l-1.6,22.7l5.2-0.1C230.5,285.4,312.5,227.9,372.9,194.9z"/>
</g>
<g id="XMLID_2_">
	<linearGradient id="XMLID_26_" gradientUnits="userSpaceOnUse" x1="123.514" y1="527.2727" x2="303.1124" y2="796.6703">
		<stop  offset="0" style="stop-color:#F3796B"/>
		<stop  offset="1" style="stop-color:#AE181C"/>
	</linearGradient>
	<polygon id="XMLID_10_" class="st6" points="390,699.4 430.6,682.3 386.2,678.5 422.6,655.6 379.9,657.4 413.1,629.7 371.6,638 
		400.3,605.9 359.1,620.2 382.4,584.3 344.1,604.5 362.2,564.7 328.1,590.8 338.6,549.7 308.1,580 314.4,536.2 289.1,571.4 
		287.7,528 267.3,567.3 260.9,524.3 246.7,564.7 232.4,524.3 226,567.3 205.6,528 204.2,571.4 178.9,536.2 185.2,580 154.7,549.7 
		165.2,590.8 131.1,564.7 149.2,604.5 110.9,584.3 134.2,620.2 93,605.9 121.7,638 80.2,629.7 113.4,657.4 70.7,655.6 107.1,678.5 
		62.7,682.3 103.3,699.4 62.7,709.8 105.6,720.4 64.3,738.2 106.6,742.3 69.6,764.5 113.5,761.9 79.8,791 121.9,781.6 91.8,816.3 
		134.4,798.9 110.7,837.2 149.5,815 131.9,854 165.5,829 154.6,869.8 184.2,839 179.8,881.1 205.6,847.4 205.6,890.3 226.3,851.5 
		233.1,895.1 246.7,854.6 260.2,895.1 267,851.5 287.7,890.3 287.7,847.4 313.5,881.1 309.1,839 338.7,869.9 327.8,829 361.4,854 
		343.8,815 382.6,837.2 358.9,798.9 401.5,816.3 371.4,781.6 413.5,791 379.8,761.9 423.7,764.5 386.7,742.3 429,738.2 387.7,720.4 
		430.6,709.8 	"/>
	<linearGradient id="XMLID_27_" gradientUnits="userSpaceOnUse" x1="269.0643" y1="741.6846" x2="107.8339" y2="541.6773">
		<stop  offset="0" style="stop-color:#7AD2F1;stop-opacity:0"/>
		<stop  offset="1" style="stop-color:#FFFFFF"/>
	</linearGradient>
	<path id="XMLID_14_" class="st7" d="M328.8,646.8l16.9-26.2l-27.9,14.8l13.2-29l-24.9,19l7.6-30l-22.3,22.2l4.6-32l-18.4,25.7
		l-1-31.7l-14.9,28.7l-4.7-31.4l-10.4,29.5l-10.4-29.5l-4.7,31.4l-14.9-28.7l-1,31.7l-18.4-25.7l4.6,32l-22.3-22.2l7.6,30l-24.9-19
		l13.2,29l-27.9-14.8l16.9,26.2l-30-10.4l21,23.5l-30.3-6.1l24.2,20.2l-31.2-1.4l26.6,16.8l-32.4,2.8l29.6,12.5l-29.6,7.5l31.3,7.7
		l-30.2,13l30.9,3l-27,16.2l32-1.9l-24.6,21.2l30.7-6.9l-22,25.3l31.1-12.7l-7.7,12.3c78.2-73.3,148.4-121.9,199.8-152.6
		L328.8,646.8z"/>
</g>
<g id="XMLID_20_">
	<linearGradient id="XMLID_28_" gradientUnits="userSpaceOnUse" x1="571.2029" y1="532.9012" x2="813.2017" y2="852.7965">
		<stop  offset="0" style="stop-color:#FFDA6B"/>
		<stop  offset="1" style="stop-color:#EB811E"/>
	</linearGradient>
	<path id="XMLID_11_" class="st8" d="M889.9,704.8c-2-6.7-5.6-12.8-10.5-17.9c-3.7-4-9.6-11.3-11.3-19.9
		c-2.6-12.8,1.1-21.8,1.1-21.8s6.3-15.9-3.4-30.5s-24.7-17.1-24.7-17.1s-15.3-3-24.3-13.6c-9-10.6-9.7-19.9-9.7-19.9
		s-2.8-16.8-22.4-23.5c-13.7-4.7-23.8-1.4-28.6,1c-4.3,2.2-9.1,3.5-13.9,3.5c-3.1,0-6.6-0.3-10.4-1.2c-10.3-2.6-15.1-8.5-15.1-8.5
		s-14-14-33.7-10.5c-19.8,3.5-25.9,19-25.9,19s-3.4,9.4-16.1,12.9c-12.7,3.5-17.3,1-17.3,1s-20.4-4.7-33.9,7.4
		c-13.5,12.1-12.5,29.4-12.5,29.4s-0.2,12.2-8.4,21.3C563.2,626.7,552,631,552,631s-16.5,5.1-23.2,22c-6.6,16.9,4.9,34.4,4.9,34.4
		s4,3.4,5.1,16.5c1.1,13.1-6.5,19.6-6.5,19.6s-12.3,11.2-8.7,31c3.6,19.8,21.7,27.9,21.7,27.9s7.3,2.5,13.3,11.2
		c2.2,3.2,3.8,6.5,4.8,9.3c1.6,4.5,2.1,9.4,1.6,14.2c-0.6,5.4-0.1,16,9,27.1c13.1,16,29.8,12.7,29.8,12.7s8.9-2.7,22,2.1
		c13.1,4.7,21.3,18,21.3,18s7.6,13.1,24.7,17.1c17.1,4,29.8-7.5,29.8-7.5s7.1-6.6,20-8.6c8.6-1.4,17.6,1.6,22.6,3.7
		c6.5,2.7,13.5,4,20.5,3.5c4.2-0.3,8.8-1.2,13.4-3.1c15.2-6.3,18.2-21,18.2-21s2.3-9.6,9.4-16.5c7.1-6.8,9.9-7.1,26.8-11.1
		c17-4.1,23.5-18.7,23.5-18.7l0,0c1.4-1.5,11.1-12.4,9.1-28.4c-2.1-17.3-2.9-20,1-29c3.9-9,12.1-14.5,12.1-14.5s12.7-8,13.3-24.4
		C891.9,713.4,891.1,708.8,889.9,704.8z"/>
	<linearGradient id="XMLID_29_" gradientUnits="userSpaceOnUse" x1="784.4734" y1="778.0218" x2="462.5008" y2="528.7527">
		<stop  offset="0" style="stop-color:#7AD2F1;stop-opacity:0"/>
		<stop  offset="1" style="stop-color:#FFFFFF"/>
	</linearGradient>
	<path id="XMLID_16_" class="st9" d="M828.3,640.9c-7.5-11.2-19-13.2-19-13.2s-11.8-2.3-18.8-10.5c-7-8.2-7.5-15.4-7.5-15.4
		s-2.2-13-17.3-18.1c-10.6-3.6-18.4-1.1-22.1,0.8c-3.3,1.7-7,2.7-10.7,2.7c-2.4,0-5.1-0.2-8-0.9c-8-2-11.7-6.6-11.7-6.6
		s-10.8-10.8-26.1-8.1c-15.3,2.7-20,14.7-20,14.7s-2.6,7.2-12.4,10s-13.3,0.8-13.3,0.8s-15.8-3.7-26.2,5.7s-9.7,22.7-9.7,22.7
		s-0.2,9.4-6.5,16.4c-4.4,8.4-13.1,11.7-13.1,11.7s-12.8,4-17.9,17c-5.1,13.1,3.8,26.6,3.8,26.6s3.1,2.6,4,12.8
		c0.9,10.1-5,15.1-5,15.1s-9.5,8.7-6.7,23.9s16.7,21.6,16.7,21.6s5.6,1.9,10.3,8.7c1.7,2.5,2.9,5,3.7,7.2c1.3,3.5,1.6,7.3,1.2,11
		c-0.4,4.1-0.1,12.3,7,21c5.9,7.2,12.8,9.4,17.5,9.9C700.7,729.2,778.6,671.4,828.3,640.9z"/>
</g>
<g id="XMLID_18_">
	<linearGradient id="XMLID_30_" gradientUnits="userSpaceOnUse" x1="988.3535" y1="127.883" x2="1270.6415" y2="377.9637">
		<stop  offset="0" style="stop-color:#D889BA"/>
		<stop  offset="1" style="stop-color:#612369"/>
	</linearGradient>
	<path id="XMLID_5_" class="st10" d="M1315.3,309.7l11.4-7.2c2.8-1.7,3.5-5.5,1.6-8.1l-7.3-10.1c-1.6-2.2-1.4-5.3,0.6-7.3l8.3-8.3
		c2.4-2.4,2.1-6.3-0.5-8.4l-8.4-6.7c-2.2-1.8-2.8-4.9-1.3-7.3l8.1-13.6c1.7-2.8,0.7-6.3-2.2-7.9l-13.3-7.2c-2.7-1.4-3.7-4.7-2.4-7.4
		l5.4-11.1c1.5-3,0-6.6-3.1-7.8l-14.4-5.4c-2.8-1-4.3-4.1-3.4-7l3.6-11.8c1-3.3-1.1-6.7-4.5-7.2l-14.4-2.4c-2.8-0.5-4.8-3-4.7-5.8
		l0.6-13.1c0.1-3.3-2.6-6.1-6-5.9l-13,0.7c-2.8,0.2-5.3-1.8-5.8-4.5l-2.4-11.3c-0.6-3.1-3.7-5-6.8-4.4l-12.8,2.9
		c-2.7,0.6-5.4-0.8-6.4-3.3l-5.4-12.7c-1.3-3-4.8-4.3-7.7-2.9l-10.7,5.2c-2.5,1.2-5.5,0.4-7.1-1.9l-7.3-10.7c-1.8-2.6-5.5-3.2-8-1.3
		l-10.4,7.7c-2.2,1.7-5.4,1.5-7.3-0.5l-8.5-8.3c-2.3-2.3-6-2.1-8.2,0.3l-9.2,10.3c-1.8,2-4.8,2.5-7.2,1.1l-11.2-6.9
		c-2.7-1.6-6.2-0.8-7.8,1.9l-5.9,9.9c-1.4,2.4-4.4,3.4-7,2.4l-12.1-4.9c-3.1-1.3-6.6,0.4-7.5,3.7l-3.7,12.6c-0.8,2.7-3.5,4.5-6.3,4
		l-14.4-2.4c-3.4-0.6-6.5,2-6.6,5.4l-0.3,12.3c-0.1,3-2.5,5.4-5.5,5.5l-15.3,0.4c-3.3,0.1-5.9,3-5.4,6.4l1.5,12.2
		c0.4,3-1.7,5.8-4.7,6.3l-14.9,2.5c-3.2,0.5-5.2,3.6-4.6,6.8l3.3,15.5c0.6,2.8-1,5.5-3.6,6.5l-10.2,3.6c-3.2,1.1-4.6,4.8-3.2,7.8
		l5.2,10.6c1.2,2.5,0.5,5.5-1.8,7.1l-10.2,7.2c-2.7,1.9-3.2,5.6-1.1,8.2l8.5,10.5c1.7,2.1,1.7,5.2-0.1,7.2l-10,11.7
		c-2.2,2.6-1.7,6.6,1.2,8.4l9.3,6c2.7,1.7,3.4,5.3,1.6,7.9l-8.8,12.9c-1.7,2.5-1.1,5.9,1.3,7.7l11.8,8.7c1.9,1.4,2.8,3.9,2.1,6.2
		l-3.9,12.7c-1,3.2,1,6.5,4.2,7.2l10.8,2.4c3.1,0.7,5,3.8,4.3,6.8l-3.5,14.7c-0.8,3.2,1.4,6.4,4.7,6.9l15.5,2.3
		c3,0.4,5.1,3.1,4.8,6.1l-1.1,12.5c-0.3,3.5,2.6,6.4,6.1,6.1l14.6-1.1c3-0.2,5.7,1.9,6,4.9l1.5,11.9c0.4,3.3,3.6,5.6,6.9,4.8
		l14.2-3.4c2.8-0.7,5.7,0.9,6.7,3.7l3.3,9.6c1,3,4.2,4.6,7.2,3.5l13.9-4.8c2.5-0.9,5.2,0.1,6.6,2.3l4.9,7.7c1.8,2.8,5.7,3.5,8.3,1.4
		l7.1-5.7c2-1.6,4.9-1.7,7-0.1l11.6,9.1c2.5,1.9,6,1.5,8-1l6.2-8.1c1.8-2.3,5-2.9,7.5-1.3l12.3,7.8c2.8,1.8,6.6,0.7,8.1-2.3
		l5.2-10.8c1.3-2.7,4.5-3.9,7.3-2.7l13.4,5.7c3.2,1.4,6.9-0.5,7.7-3.8l3-12.2c0.7-2.9,3.6-4.7,6.5-4.2l15.4,2.8
		c3.3,0.6,6.3-1.7,6.6-5l1.4-15c0.3-3.1,3.1-5.4,6.2-5.1l11,1.2c3.3,0.4,6.2-2.1,6.3-5.4l0.4-13.3c0.1-2.4,1.7-4.5,3.9-5.2l14-4.4
		c2.9-0.9,4.6-4,3.7-6.9l-4.2-15.1c-0.9-3.1,1-6.2,4.1-7l10.8-2.7c3.3-0.8,5.2-4.4,3.9-7.6l-5.7-14.3
		C1312.1,314,1313,311.1,1315.3,309.7z"/>
	<linearGradient id="XMLID_31_" gradientUnits="userSpaceOnUse" x1="1189.4735" y1="308.4317" x2="980.1257" y2="108.5567">
		<stop  offset="0" style="stop-color:#7AD2F1;stop-opacity:0"/>
		<stop  offset="1" style="stop-color:#FFFFFF"/>
	</linearGradient>
	<path id="XMLID_15_" class="st11" d="M1268.3,192.3l1.9-6.1c0.8-2.7-0.9-5.4-3.6-5.9l-11.7-1.9c-2.3-0.4-3.9-2.4-3.8-4.7l0.5-10.7
		c0.1-2.7-2.1-4.9-4.8-4.8l-10.6,0.6c-2.3,0.1-4.3-1.4-4.7-3.6l-1.9-9.2c-0.5-2.5-3-4.1-5.5-3.5l-10.4,2.3c-2.2,0.5-4.4-0.6-5.2-2.7
		l-4.4-10.3c-1-2.4-3.9-3.5-6.2-2.3l-8.7,4.2c-2,1-4.5,0.3-5.8-1.5l-6-8.7c-1.5-2.1-4.4-2.6-6.5-1.1l-8.4,6.3
		c-1.8,1.4-4.3,1.2-6-0.4l-6.9-6.8c-1.9-1.8-4.9-1.7-6.6,0.2l-7.4,8.3c-1.5,1.7-3.9,2-5.8,0.9l-9.1-5.6c-2.2-1.3-5-0.6-6.3,1.6
		l-4.8,8.1c-1.2,2-3.6,2.8-5.7,1.9l-9.8-4c-2.5-1-5.4,0.4-6.1,3l-3,10.2c-0.7,2.2-2.9,3.6-5.2,3.2l-11.7-1.9
		c-2.7-0.5-5.3,1.6-5.3,4.4l-0.3,10c-0.1,2.4-2,4.4-4.5,4.5l-12.5,0.4c-2.7,0.1-4.8,2.5-4.4,5.2l1.3,9.9c0.3,2.4-1.4,4.7-3.8,5.1
		l-12.1,2.1c-2.6,0.4-4.3,2.9-3.7,5.5l2.7,12.6c0.5,2.2-0.8,4.5-2.9,5.3l-8.3,3c-2.6,0.9-3.8,3.9-2.6,6.3l4.2,8.6
		c1,2,0.4,4.5-1.5,5.8l-8.3,5.9c-2.2,1.5-2.6,4.6-0.9,6.6l6.9,8.5c1.4,1.7,1.4,4.2-0.1,5.9l-8.1,9.5c-1.8,2.1-1.3,5.3,1,6.9l7.6,4.9
		c2.2,1.4,2.8,4.3,1.3,6.5l-7.2,10.5c-1.4,2-0.9,4.8,1.1,6.3l9.6,7.1c1.6,1.2,2.2,3.2,1.7,5l-3.2,10.3c-0.8,2.6,0.8,5.2,3.4,5.8
		l8.8,1.9c2.5,0.6,4.1,3.1,3.5,5.5l-2.8,11.9c-0.6,2.6,1.1,5.2,3.8,5.6l12.6,1.9c2.4,0.4,4.1,2.5,3.9,4.9l-0.9,10.1
		c-0.2,2.8,2.1,5.2,4.9,5l11.8-0.9c0.7-0.1,1.4,0.1,2,0.3C1133.9,283.2,1212.6,224.6,1268.3,192.3z"/>
</g>
<g id="XMLID_19_">
	<linearGradient id="XMLID_32_" gradientUnits="userSpaceOnUse" x1="985.9689" y1="537.0833" x2="1194.5785" y2="755.1274">
		<stop  offset="0" style="stop-color:#C7E6D5"/>
		<stop  offset="0.9967" style="stop-color:#00AA8B"/>
	</linearGradient>
	<path id="XMLID_12_" class="st12" d="M1331.1,762c0,0-108.5-36.4-21.7-30c0,0-85.5-15.1,27.8-23.2c0,0-110.4-5.4-28.6-22
		c0,0-85.3,8.1,21.7-30.2c0,0-107.3,26.5-35.3-13.6c0,0-76.6,31.4,11.8-35.3c0,0-95.3,54.9-36.5-3.6c0,0-67.2,53.1,3.9-37.4
		c0,0-79.3,80.5-38,8.1c0,0-48.5,69.6-9.3-36.5c0,0-51.6,98-32,17.2c0,0-27.1,80.8-19-31.1c0,0-20.3,109.6-25.9,23.6
		c-5.6,86-25.9-23.6-25.9-23.6c8.1,111.9-19,31.1-19,31.1c19.6,80.8-32-17.2-32-17.2c39.2,106.1-9.3,36.5-9.3,36.5
		c41.3,72.4-38-8.1-38-8.1c71.2,90.5,3.9,37.4,3.9,37.4c58.8,58.5-36.5,3.6-36.5,3.6c88.3,66.6,11.8,35.3,11.8,35.3
		c72.1,40.1-35.3,13.6-35.3,13.6c107,38.3,21.7,30.2,21.7,30.2c81.7,16.6-28.6,22-28.6,22c113.4,8.1,27.8,23.2,27.8,23.2
		c86.8-6.4-21.7,30-21.7,30c113-24.1,34.6,13.7,34.6,13.7c80-29.7-11.7,35-11.7,35c99.7-55.5,37.4,3.6,37.4,3.6
		c66.3-49.4-2.8,36.6-2.8,36.6c82-81.2,36.6-6.4,36.6-6.4c50.3-65.5,8.4,35.4,8.4,35.4c54.3-100.1,33.8-16.9,33.8-16.9
		c27.7-78.8,18.1,32.2,18.1,32.2c22.9-111.8,26.7-24.5,26.7-24.5s3.8-87.2,26.7,24.5c0,0-9.6-111,18.1-32.2c0,0-20.5-83.2,33.8,16.9
		c0,0-41.8-100.9,8.4-35.4c0,0-45.4-74.8,36.6,6.4c0,0-69.1-86-2.8-36.6c0,0-62.3-59.1,37.4-3.6c0,0-91.7-64.7-11.7-35
		C1296.6,775.7,1218.2,737.9,1331.1,762z"/>
	<linearGradient id="XMLID_33_" gradientUnits="userSpaceOnUse" x1="1176.624" y1="721.8241" x2="1009.946" y2="624.3332">
		<stop  offset="0" style="stop-color:#7AD2F1;stop-opacity:0"/>
		<stop  offset="1" style="stop-color:#FFFFFF"/>
	</linearGradient>
	<path id="XMLID_1_" class="st13" d="M1214.3,615.3c0,0-88.8,70-108.5,192.6c0,0-72.9-21.5-72.4-110.9
		C1034,607.5,1151.9,565.3,1214.3,615.3z"/>
</g>
</svg>
